<svg width="32" height="32" viewBox="0 0 32 32" fill="none" xmlns="http://www.w3.org/2000/svg">
<path fill-rule="evenodd" clip-rule="evenodd" d="M27.707 8.293C27.8945 8.48053 27.9998 8.73484 27.9998 9C27.9998 9.26516 27.8945 9.51947 27.707 9.707L13.207 24.207C13.0282 24.3859 12.7884 24.4904 12.5356 24.4995C12.2829 24.5085 12.0362 24.4216 11.845 24.256L4.34501 17.756C4.1445 17.5823 4.02122 17.336 4.00228 17.0714C3.98334 16.8068 4.07029 16.5455 4.24401 16.345C4.41772 16.1445 4.66398 16.0212 4.92859 16.0023C5.1932 15.9833 5.4545 16.0703 5.65501 16.244L12.451 22.134L26.293 8.293C26.4805 8.10553 26.7348 8.00021 27 8.00021C27.2652 8.00021 27.5195 8.10553 27.707 8.293V8.293Z" fill="#333333"/>
</svg>
