<svg width="32" height="32" viewBox="0 0 32 32" fill="none" xmlns="http://www.w3.org/2000/svg">
<path fill-rule="evenodd" clip-rule="evenodd" d="M16.293 23.707C16.1055 23.5195 16.0002 23.2652 16.0002 23C16.0002 22.7348 16.1055 22.4805 16.293 22.293L22.586 16L16.293 9.70699C16.1108 9.51839 16.01 9.26579 16.0123 9.00359C16.0146 8.7414 16.1198 8.49058 16.3052 8.30518C16.4906 8.11977 16.7414 8.0146 17.0036 8.01232C17.2658 8.01004 17.5184 8.11084 17.707 8.293L24.707 15.293C24.8945 15.4805 24.9998 15.7348 24.9998 16C24.9998 16.2652 24.8945 16.5195 24.707 16.707L17.707 23.707C17.5195 23.8945 17.2652 23.9998 17 23.9998C16.7348 23.9998 16.4805 23.8945 16.293 23.707Z" fill="white"/>
<path fill-rule="evenodd" clip-rule="evenodd" d="M7.293 23.707C7.10553 23.5195 7.00021 23.2652 7.00021 23C7.00021 22.7348 7.10553 22.4805 7.293 22.293L13.586 16L7.293 9.70699C7.11084 9.51839 7.01005 9.26579 7.01233 9.00359C7.0146 8.7414 7.11977 8.49058 7.30518 8.30518C7.49059 8.11977 7.7414 8.0146 8.0036 8.01232C8.2658 8.01004 8.5184 8.11084 8.707 8.293L15.707 15.293C15.8945 15.4805 15.9998 15.7348 15.9998 16C15.9998 16.2652 15.8945 16.5195 15.707 16.707L8.707 23.707C8.51947 23.8945 8.26516 23.9998 8 23.9998C7.73484 23.9998 7.48053 23.8945 7.293 23.707V23.707Z" fill="white"/>
</svg>
