<svg width="32" height="32" viewBox="0 0 32 32" fill="none" xmlns="http://www.w3.org/2000/svg">
<path fill-rule="evenodd" clip-rule="evenodd" d="M15.707 8.293C15.8945 8.48053 15.9998 8.73484 15.9998 9C15.9998 9.26516 15.8945 9.51947 15.707 9.707L9.414 16L15.707 22.293C15.8892 22.4816 15.99 22.7342 15.9877 22.9964C15.9854 23.2586 15.8802 23.5094 15.6948 23.6948C15.5094 23.8802 15.2586 23.9854 14.9964 23.9877C14.7342 23.99 14.4816 23.8892 14.293 23.707L7.293 16.707C7.10553 16.5195 7.00021 16.2652 7.00021 16C7.00021 15.7348 7.10553 15.4805 7.293 15.293L14.293 8.293C14.4805 8.10553 14.7348 8.00021 15 8.00021C15.2652 8.00021 15.5195 8.10553 15.707 8.293V8.293Z" fill="white"/>
<path fill-rule="evenodd" clip-rule="evenodd" d="M24.707 8.293C24.8945 8.48053 24.9998 8.73484 24.9998 9C24.9998 9.26516 24.8945 9.51947 24.707 9.707L18.414 16L24.707 22.293C24.8892 22.4816 24.99 22.7342 24.9877 22.9964C24.9854 23.2586 24.8802 23.5094 24.6948 23.6948C24.5094 23.8802 24.2586 23.9854 23.9964 23.9877C23.7342 23.99 23.4816 23.8892 23.293 23.707L16.293 16.707C16.1055 16.5195 16.0002 16.2652 16.0002 16C16.0002 15.7348 16.1055 15.4805 16.293 15.293L23.293 8.293C23.4805 8.10553 23.7348 8.00021 24 8.00021C24.2652 8.00021 24.5195 8.10553 24.707 8.293V8.293Z" fill="white"/>
</svg>
