<svg width="32" height="32" viewBox="0 0 32 32" fill="none" xmlns="http://www.w3.org/2000/svg">
<path fill-rule="evenodd" clip-rule="evenodd" d="M23.707 19.707C23.5195 19.8945 23.2651 19.9998 23 19.9998C22.7348 19.9998 22.4805 19.8945 22.293 19.707L16 13.414L9.70698 19.707C9.51838 19.8892 9.26578 19.99 9.00358 19.9877C8.74138 19.9854 8.49057 19.8802 8.30516 19.6948C8.11975 19.5094 8.01458 19.2586 8.01231 18.9964C8.01003 18.7342 8.11082 18.4816 8.29298 18.293L15.293 11.293C15.4805 11.1055 15.7348 11.0002 16 11.0002C16.2651 11.0002 16.5195 11.1055 16.707 11.293L23.707 18.293C23.8945 18.4805 23.9998 18.7348 23.9998 19C23.9998 19.2652 23.8945 19.5195 23.707 19.707Z" fill="#333333"/>
</svg>
