<svg width="32" height="32" viewBox="0 0 32 32" fill="none" xmlns="http://www.w3.org/2000/svg">
<path fill-rule="evenodd" clip-rule="evenodd" d="M12.293 23.707C12.1056 23.5195 12.0002 23.2652 12.0002 23C12.0002 22.7348 12.1056 22.4805 12.293 22.293L18.586 16L12.293 9.70699C12.1109 9.51839 12.0101 9.26579 12.0124 9.00359C12.0146 8.7414 12.1198 8.49058 12.3052 8.30518C12.4906 8.11977 12.7414 8.0146 13.0036 8.01232C13.2658 8.01004 13.5184 8.11084 13.707 8.293L20.707 15.293C20.8945 15.4805 20.9998 15.7348 20.9998 16C20.9998 16.2652 20.8945 16.5195 20.707 16.707L13.707 23.707C13.5195 23.8945 13.2652 23.9998 13 23.9998C12.7349 23.9998 12.4806 23.8945 12.293 23.707V23.707Z" fill="white"/>
</svg>
