<svg width="32" height="32" viewBox="0 0 32 32" fill="none" xmlns="http://www.w3.org/2000/svg">
<path fill-rule="evenodd" clip-rule="evenodd" d="M20.207 7.793C20.3945 7.98053 20.4998 8.23484 20.4998 8.5C20.4998 8.76516 20.3945 9.01947 20.207 9.207L13.914 15.5L20.207 21.793C20.3892 21.9816 20.49 22.2342 20.4877 22.4964C20.4854 22.7586 20.3802 23.0094 20.1948 23.1948C20.0094 23.3802 19.7586 23.4854 19.4964 23.4877C19.2342 23.49 18.9816 23.3892 18.793 23.207L11.793 16.207C11.6055 16.0195 11.5002 15.7652 11.5002 15.5C11.5002 15.2348 11.6055 14.9805 11.793 14.793L18.793 7.793C18.9805 7.60553 19.2348 7.50021 19.5 7.50021C19.7652 7.50021 20.0195 7.60553 20.207 7.793V7.793Z" fill="white"/>
</svg>
