<svg width="32" height="32" viewBox="0 0 32 32" fill="none" xmlns="http://www.w3.org/2000/svg">
<path fill-rule="evenodd" clip-rule="evenodd" d="M26.707 21.707C26.5195 21.8945 26.2651 21.9998 26 21.9998C25.7348 21.9998 25.4805 21.8945 25.293 21.707L16 12.414L6.70698 21.707C6.51838 21.8892 6.26578 21.99 6.00358 21.9877C5.74138 21.9854 5.49057 21.8802 5.30516 21.6948C5.11975 21.5094 5.01458 21.2586 5.01231 20.9964C5.01003 20.7342 5.11082 20.4816 5.29298 20.293L15.293 10.293C15.4805 10.1055 15.7348 10.0002 16 10.0002C16.2651 10.0002 16.5195 10.1055 16.707 10.293L26.707 20.293C26.8945 20.4805 26.9998 20.7348 26.9998 21C26.9998 21.2652 26.8945 21.5195 26.707 21.707Z" fill="white"/>
</svg>
