<svg width="32" height="32" viewBox="0 0 32 32" fill="none" xmlns="http://www.w3.org/2000/svg">
<path fill-rule="evenodd" clip-rule="evenodd" d="M5.293 10.293C5.48053 10.1055 5.73484 10.0002 6 10.0002C6.26516 10.0002 6.51947 10.1055 6.707 10.293L16 19.586L25.293 10.293C25.3852 10.1975 25.4956 10.1213 25.6176 10.0689C25.7396 10.0165 25.8708 9.98891 26.0036 9.98775C26.1364 9.9866 26.2681 10.0119 26.391 10.0622C26.5138 10.1125 26.6255 10.1867 26.7194 10.2806C26.8133 10.3745 26.8875 10.4862 26.9378 10.6091C26.9881 10.7319 27.0134 10.8636 27.0123 10.9964C27.0111 11.1292 26.9835 11.2604 26.9311 11.3824C26.8787 11.5044 26.8025 11.6148 26.707 11.707L16.707 21.707C16.5195 21.8945 16.2652 21.9998 16 21.9998C15.7348 21.9998 15.4805 21.8945 15.293 21.707L5.293 11.707C5.10553 11.5195 5.00021 11.2652 5.00021 11C5.00021 10.7348 5.10553 10.4805 5.293 10.293V10.293Z" fill="white"/>
</svg>
