<svg width="32" height="32" viewBox="0 0 32 32" fill="none" xmlns="http://www.w3.org/2000/svg">
<path fill-rule="evenodd" clip-rule="evenodd" d="M8.293 11.293C8.48053 11.1055 8.73484 11.0002 9 11.0002C9.26516 11.0002 9.51947 11.1055 9.707 11.293L16 17.586L22.293 11.293C22.4816 11.1108 22.7342 11.01 22.9964 11.0123C23.2586 11.0146 23.5094 11.1198 23.6948 11.3052C23.8802 11.4906 23.9854 11.7414 23.9877 12.0036C23.99 12.2658 23.8892 12.5184 23.707 12.707L16.707 19.707C16.5195 19.8945 16.2652 19.9998 16 19.9998C15.7348 19.9998 15.4805 19.8945 15.293 19.707L8.293 12.707C8.10553 12.5195 8.00021 12.2652 8.00021 12C8.00021 11.7348 8.10553 11.4805 8.293 11.293V11.293Z" fill="#333333"/>
</svg>
