<svg width="32" height="32" viewBox="0 0 32 32" fill="none" xmlns="http://www.w3.org/2000/svg">
<path d="M7.51502 24.485C7.32754 24.2975 7.22223 24.0432 7.22223 23.778C7.22223 23.5128 7.32754 23.2585 7.51502 23.071L23.07 7.515C23.1623 7.41949 23.2726 7.34331 23.3946 7.2909C23.5166 7.23849 23.6478 7.21091 23.7806 7.20975C23.9134 7.2086 24.0451 7.2339 24.168 7.28418C24.2909 7.33446 24.4025 7.40872 24.4964 7.50261C24.5903 7.5965 24.6646 7.70815 24.7148 7.83105C24.7651 7.95395 24.7904 8.08563 24.7893 8.21841C24.7881 8.35119 24.7605 8.48241 24.7081 8.60441C24.6557 8.72641 24.5795 8.83676 24.484 8.929L8.93002 24.485C8.74249 24.6725 8.48818 24.7778 8.22301 24.7778C7.95785 24.7778 7.70354 24.6725 7.51602 24.485H7.51502Z" fill="white"/>
<path d="M24.485 24.485C24.2975 24.6725 24.0432 24.7778 23.778 24.7778C23.5128 24.7778 23.2585 24.6725 23.071 24.485L7.515 8.93001C7.41949 8.83777 7.34331 8.72742 7.2909 8.60542C7.23849 8.48341 7.21091 8.35219 7.20975 8.21941C7.2086 8.08663 7.2339 7.95495 7.28418 7.83206C7.33446 7.70916 7.40872 7.59751 7.50261 7.50362C7.5965 7.40972 7.70815 7.33547 7.83105 7.28519C7.95395 7.23491 8.08563 7.20961 8.21841 7.21076C8.35119 7.21192 8.48241 7.2395 8.60441 7.29191C8.72641 7.34432 8.83676 7.4205 8.929 7.51601L24.485 23.07C24.6725 23.2575 24.7778 23.5118 24.7778 23.777C24.7778 24.0422 24.6725 24.2965 24.485 24.484V24.485Z" fill="white"/>
</svg>
