<svg width="32" height="32" viewBox="0 0 32 32" fill="none" xmlns="http://www.w3.org/2000/svg">
<path d="M9.275 22.276C8.885 21.885 8.805 21.331 9.099 21.038L20.766 9.371C21.059 9.078 21.613 9.157 22.003 9.548C22.393 9.938 22.473 10.492 22.18 10.785L10.513 22.452C10.22 22.745 9.666 22.666 9.275 22.275V22.276Z" fill="#333333"/>
<path d="M9.452 9.548C9.842 9.157 10.397 9.078 10.69 9.371L22.357 21.038C22.65 21.331 22.571 21.885 22.18 22.276C21.79 22.666 21.236 22.746 20.943 22.452L9.276 10.785C8.983 10.492 9.062 9.938 9.452 9.548Z" fill="#333333"/>
</svg>
