<svg width="32" height="32" viewBox="0 0 32 32" fill="none" xmlns="http://www.w3.org/2000/svg">
<path fill-rule="evenodd" clip-rule="evenodd" d="M5 16.5C5.26522 16.5 5.51957 16.6054 5.70711 16.7929C5.89464 16.9804 6 17.2348 6 17.5V25H26V17.5C26 17.2348 26.1054 16.9804 26.2929 16.7929C26.4804 16.6054 26.7348 16.5 27 16.5C27.2652 16.5 27.5196 16.6054 27.7071 16.7929C27.8946 16.9804 28 17.2348 28 17.5V26C28 26.2652 27.8946 26.5196 27.7071 26.7071C27.5196 26.8946 27.2652 27 27 27H5C4.73478 27 4.48043 26.8946 4.29289 26.7071C4.10536 26.5196 4 26.2652 4 26V17.5C4 17.2348 4.10536 16.9804 4.29289 16.7929C4.48043 16.6054 4.73478 16.5 5 16.5Z" fill="#333333"/>
<path d="M15.293 18.707C15.4805 18.8945 15.7348 18.9998 16 18.9998C16.2652 18.9998 16.5195 18.8945 16.707 18.707L21.707 13.707C21.8892 13.5184 21.99 13.2658 21.9877 13.0036C21.9854 12.7414 21.8802 12.4906 21.6948 12.3052C21.5094 12.1198 21.2586 12.0146 20.9964 12.0123C20.7342 12.01 20.4816 12.1108 20.293 12.293L17 15.586V4C17 3.73478 16.8947 3.48043 16.7071 3.29289C16.5196 3.10536 16.2652 3 16 3C15.7348 3 15.4804 3.10536 15.2929 3.29289C15.1054 3.48043 15 3.73478 15 4V15.586L11.707 12.293C11.5184 12.1108 11.2658 12.01 11.0036 12.0123C10.7414 12.0146 10.4906 12.1198 10.3052 12.3052C10.1198 12.4906 10.0146 12.7414 10.0123 13.0036C10.0101 13.2658 10.1109 13.5184 10.293 13.707L15.293 18.707V18.707Z" fill="#333333"/>
</svg>
