<svg width="32" height="32" viewBox="0 0 32 32" fill="none" xmlns="http://www.w3.org/2000/svg">
<path fill-rule="evenodd" clip-rule="evenodd" d="M19.793 4.293C19.9805 4.10553 20.2348 4.00021 20.5 4.00021C20.7652 4.00021 21.0195 4.10553 21.207 4.293L27.707 10.793C27.8945 10.9805 27.9998 11.2348 27.9998 11.5C27.9998 11.7652 27.8945 12.0195 27.707 12.207L12.207 27.707C12.0195 27.8946 11.7652 27.9999 11.5 28H5C4.73478 28 4.48043 27.8946 4.29289 27.7071C4.10536 27.5196 4 27.2652 4 27V20.5C4.00006 20.2348 4.10545 19.9805 4.293 19.793L19.793 4.293V4.293ZM6 20.914V26H11.086L25.586 11.5L20.5 6.414L6 20.914Z" fill="white"/>
<path fill-rule="evenodd" clip-rule="evenodd" d="M17.293 7.793C17.4805 7.60553 17.7348 7.50021 18 7.50021C18.2652 7.50021 18.5195 7.60553 18.707 7.793L25.207 14.293C25.3273 14.413 25.4151 14.5617 25.462 14.725L26.462 18.225C26.511 18.3965 26.5131 18.5781 26.4683 18.7507C26.4234 18.9234 26.3332 19.0809 26.207 19.207L21.707 23.707C21.5184 23.8892 21.2658 23.99 21.0036 23.9877C20.7414 23.9854 20.4906 23.8802 20.3052 23.6948C20.1198 23.5094 20.0146 23.2586 20.0123 22.9964C20.01 22.7342 20.1108 22.4816 20.293 22.293L24.377 18.209L23.61 15.524L17.293 9.207C17.1055 9.01947 17.0002 8.76516 17.0002 8.5C17.0002 8.23484 17.1055 7.98053 17.293 7.793V7.793ZM4.822 19.765C5.01694 19.5852 5.27532 19.4902 5.5403 19.5009C5.80529 19.5116 6.05517 19.6271 6.235 19.822L12.235 26.322C12.4118 26.5174 12.5044 26.7748 12.4925 27.0381C12.4806 27.3014 12.3653 27.5493 12.1716 27.728C11.9778 27.9067 11.7214 28.0017 11.458 27.9924C11.1946 27.983 10.9455 27.87 10.765 27.678L4.765 21.178C4.58519 20.9831 4.49019 20.7247 4.50087 20.4597C4.51156 20.1947 4.62707 19.9448 4.822 19.765V19.765Z" fill="white"/>
</svg>
