<svg width="32" height="32" viewBox="0 0 32 32" fill="none" xmlns="http://www.w3.org/2000/svg">
<path fill-rule="evenodd" clip-rule="evenodd" d="M12.19 17.371C12.3751 17.5598 12.4787 17.8136 12.4787 18.078C12.4787 18.3424 12.3751 18.5962 12.19 18.785L8.27101 22.763C8.18023 22.8557 8.07186 22.9293 7.95227 22.9796C7.83267 23.0298 7.70424 23.0557 7.57451 23.0557C7.44478 23.0557 7.31635 23.0298 7.19676 22.9796C7.07716 22.9293 6.96879 22.8557 6.87801 22.763L2.69701 18.52C2.51195 18.3312 2.40829 18.0774 2.40829 17.813C2.40829 17.5486 2.51195 17.2948 2.69701 17.106C2.78779 17.0133 2.89616 16.9397 3.01576 16.8894C3.13535 16.8392 3.26378 16.8133 3.39351 16.8133C3.52324 16.8133 3.65167 16.8392 3.77127 16.8894C3.89086 16.9397 3.99923 17.0133 4.09001 17.106L7.57401 20.642L10.797 17.372C10.8878 17.2792 10.9962 17.2054 11.1159 17.1551C11.2356 17.1047 11.3642 17.0788 11.494 17.0788C11.6239 17.0788 11.7524 17.1047 11.8721 17.1551C11.9918 17.2054 12.1002 17.2792 12.191 17.372L12.19 17.371Z" fill="white"/>
<path fill-rule="evenodd" clip-rule="evenodd" d="M18.175 5.836C12.733 5.836 8.32101 10.313 8.32101 15.836V21.336H6.35001V15.836C6.35001 9.208 11.644 3.836 18.175 3.836C24.705 3.836 30 9.208 30 15.836C30 22.463 24.706 27.836 18.175 27.836V25.836C23.617 25.836 28.029 21.359 28.029 15.836C28.029 10.313 23.617 5.836 18.175 5.836V5.836Z" fill="white"/>
</svg>
