<svg width="32" height="32" viewBox="0 0 32 32" fill="none" xmlns="http://www.w3.org/2000/svg">
<path fill-rule="evenodd" clip-rule="evenodd" d="M13.336 5.028C12.245 5.028 11.1646 5.2429 10.1567 5.66041C9.14869 6.07793 8.23283 6.68989 7.46136 7.46136C6.68989 8.23283 6.07792 9.1487 5.66041 10.1567C5.24289 11.1646 5.028 12.245 5.028 13.336C5.028 14.427 5.24289 15.5074 5.66041 16.5153C6.07792 17.5233 6.68989 18.4392 7.46136 19.2106C8.23283 19.9821 9.14869 20.5941 10.1567 21.0116C11.1646 21.4291 12.245 21.644 13.336 21.644C15.5394 21.644 17.6526 20.7687 19.2106 19.2106C20.7687 17.6526 21.644 15.5394 21.644 13.336C21.644 11.1326 20.7687 9.01941 19.2106 7.46136C17.6526 5.90331 15.5394 5.028 13.336 5.028V5.028ZM6.027 6.028C7.90415 4.1556 10.429 3.07607 13.0796 3.01258C15.7301 2.94909 18.3038 3.9065 20.2684 5.68688C22.2331 7.46726 23.4385 9.93447 23.6355 12.5785C23.8325 15.2225 23.0061 17.8411 21.327 19.893L28.703 27.269C28.7978 27.363 28.8731 27.4748 28.9246 27.598C28.9761 27.7212 29.0027 27.8534 29.003 27.9869C29.0033 28.1204 28.9772 28.2527 28.9262 28.3761C28.8753 28.4995 28.8004 28.6116 28.706 28.706C28.6116 28.8004 28.4995 28.8753 28.3761 28.9262C28.2527 28.9772 28.1204 29.0033 27.9869 29.003C27.8534 29.0027 27.7212 28.9761 27.598 28.9246C27.4748 28.8731 27.363 28.7978 27.269 28.703L19.893 21.327C18.3796 22.5695 16.5444 23.3565 14.6011 23.5964C12.6577 23.8362 10.6862 23.5191 8.91612 22.6819C7.14604 21.8447 5.65021 20.5219 4.60282 18.8674C3.55543 17.213 2.99958 15.2951 3 13.337C3 10.595 4.089 7.966 6.027 6.027V6.028Z" fill="white"/>
</svg>
