<svg width="32" height="32" viewBox="0 0 32 32" fill="none" xmlns="http://www.w3.org/2000/svg">
<path d="M7.37054 17.2953V16.0353H12.2966C12.2966 19.2853 11.1048 22.0761 7.6316 23.9013L6.79167 22.712C9.22065 21.4167 10.5146 19.6975 10.787 17.2953H7.37054Z" fill="#333333"/>
<path d="M15.0775 19.0616H16.5417V20.3451H15.0775V25.75H13.5792V14.9167H15.0775V19.0616Z" fill="#333333"/>
<path fill-rule="evenodd" clip-rule="evenodd" d="M11.6667 5.16667C11.6667 3.97005 12.6367 3 13.8333 3H26.8333C28.03 3 29 3.97005 29 5.16667V18.1667C29 19.3633 28.03 20.3333 26.8333 20.3333H20.3333V26.8333C20.3333 28.03 19.3633 29 18.1667 29H5.16667C3.97005 29 3 28.03 3 26.8333V13.8333C3 12.6367 3.97005 11.6667 5.16667 11.6667H11.6667V5.16667ZM23.0092 14.5713H20.3333V13.8333C20.3333 13.4375 20.2272 13.0664 20.0418 12.747H22.4135L21.078 9.20481C21.0267 9.05132 20.9531 8.83583 20.857 8.55836C20.7609 8.27498 20.6648 7.98865 20.5687 7.69936C20.4727 7.40418 20.3926 7.15622 20.3285 6.95549C20.2645 7.19755 20.1844 7.46912 20.0883 7.77021C19.9986 8.0654 19.909 8.34287 19.8193 8.60263C19.736 8.8624 19.672 9.06313 19.6271 9.20481L18.6699 11.7254C18.5084 11.687 18.3399 11.6667 18.1667 11.6667H16.4468L19.0602 5.16667H21.616L26.8333 18.1667H24.3832L23.0092 14.5713ZM5.16667 13.8333V26.8333H18.1667V13.8333H5.16667Z" fill="#333333"/>
</svg>
