<svg width="32" height="32" viewBox="0 0 32 32" fill="none" xmlns="http://www.w3.org/2000/svg">
<path fill-rule="evenodd" clip-rule="evenodd" d="M15.1153 25L14.0584 22.2343H9.92683L8.86992 25H7L11.0207 15H12.9867L17 25H15.1153ZM13.6001 20.8311L12.5728 18.1063C12.5334 17.9882 12.4767 17.8224 12.4028 17.609C12.3289 17.391 12.255 17.1708 12.1811 16.9482C12.1072 16.7212 12.0456 16.5304 11.9963 16.376C11.947 16.5622 11.8854 16.7711 11.8115 17.0027C11.7425 17.2298 11.6736 17.4432 11.6046 17.6431C11.5405 17.8429 11.4913 17.9973 11.4568 18.1063L10.422 20.8311H13.6001Z" fill="#333333"/>
<path fill-rule="evenodd" clip-rule="evenodd" d="M13.8333 3C12.6367 3 11.6667 3.97005 11.6667 5.16667V11.6667H5.16667C3.97005 11.6667 3 12.6367 3 13.8333V26.8333C3 28.03 3.97005 29 5.16667 29H18.1667C19.3633 29 20.3333 28.03 20.3333 26.8333V20.3333H26.8333C28.03 20.3333 29 19.3633 29 18.1667V5.16667C29 3.97005 28.03 3 26.8333 3H13.8333ZM19.5888 12.1987C20.7191 10.5215 21.1732 8.59404 21.1732 6.50906H14.6052V8.02101H19.1604C18.9846 9.41656 18.4895 10.6201 17.658 11.6667H18.1667C18.7108 11.6667 19.2082 11.8673 19.5888 12.1987ZM26.8333 10.1406H24.8811V5.16667H22.8834V18.1667H24.8811V11.6807H26.8333V10.1406ZM18.1667 26.8333V13.8333H5.16667V26.8333H18.1667Z" fill="#333333"/>
</svg>
