<svg width="32" height="32" viewBox="0 0 32 32" fill="none" xmlns="http://www.w3.org/2000/svg">
<path fill-rule="evenodd" clip-rule="evenodd" d="M13.5 4C13.2348 4 12.9804 4.10536 12.7929 4.29289C12.6054 4.48043 12.5 4.73478 12.5 5V7H10.5V5C10.5 4.20435 10.8161 3.44129 11.3787 2.87868C11.9413 2.31607 12.7044 2 13.5 2H18.5C19.2956 2 20.0587 2.31607 20.6213 2.87868C21.1839 3.44129 21.5 4.20435 21.5 5V7H19.5V5C19.5 4.73478 19.3946 4.48043 19.2071 4.29289C19.0196 4.10536 18.7652 4 18.5 4H13.5ZM5 8C5 7.73478 5.10536 7.48043 5.29289 7.29289C5.48043 7.10536 5.73478 7 6 7H26C26.2652 7 26.5196 7.10536 26.7071 7.29289C26.8946 7.48043 27 7.73478 27 8C27 8.26522 26.8946 8.51957 26.7071 8.70711C26.5196 8.89464 26.2652 9 26 9H6C5.73478 9 5.48043 8.89464 5.29289 8.70711C5.10536 8.51957 5 8.26522 5 8V8ZM7 28V9H9V28H23V9H25V28C25 28.5304 24.7893 29.0391 24.4142 29.4142C24.0391 29.7893 23.5304 30 23 30H9C8.46957 30 7.96086 29.7893 7.58579 29.4142C7.21071 29.0391 7 28.5304 7 28Z" fill="#333333"/>
<path fill-rule="evenodd" clip-rule="evenodd" d="M13.5 13.5C13.7652 13.5 14.0196 13.6054 14.2071 13.7929C14.3946 13.9804 14.5 14.2348 14.5 14.5V22.5C14.5 22.7652 14.3946 23.0196 14.2071 23.2071C14.0196 23.3946 13.7652 23.5 13.5 23.5C13.2348 23.5 12.9804 23.3946 12.7929 23.2071C12.6054 23.0196 12.5 22.7652 12.5 22.5V14.5C12.5 14.2348 12.6054 13.9804 12.7929 13.7929C12.9804 13.6054 13.2348 13.5 13.5 13.5V13.5ZM19 13.5C19.2652 13.5 19.5196 13.6054 19.7071 13.7929C19.8946 13.9804 20 14.2348 20 14.5V22.5C20 22.7652 19.8946 23.0196 19.7071 23.2071C19.5196 23.3946 19.2652 23.5 19 23.5C18.7348 23.5 18.4804 23.3946 18.2929 23.2071C18.1054 23.0196 18 22.7652 18 22.5V14.5C18 14.2348 18.1054 13.9804 18.2929 13.7929C18.4804 13.6054 18.7348 13.5 19 13.5Z" fill="#333333"/>
</svg>
